<?xml version="1.0" encoding="UTF-8" standalone="no"?>
<!DOCTYPE svg PUBLIC "-//W3C//DTD SVG 1.1//EN"
 "http://www.w3.org/Graphics/SVG/1.1/DTD/svg11.dtd">
<!-- Generated by graphviz version 2.38.0 (20140413.2041)
 -->
<!-- Title: %3 Pages: 1 -->
<svg width="864pt" height="846pt"
 viewBox="0.00 0.00 864.14 846.14" xmlns="http://www.w3.org/2000/svg" xmlns:xlink="http://www.w3.org/1999/xlink">
<g id="graph0" class="graph" transform="scale(1 1) rotate(0) translate(4 842.141)">
<title>%3</title>
<polygon fill="white" stroke="none" points="-4,4 -4,-842.141 860.141,-842.141 860.141,4 -4,4"/>
<!-- 0 -->
<g id="node1" class="node"><title>0</title>
<ellipse fill="none" stroke="black" cx="663.814" cy="-94.5976" rx="27" ry="18"/>
<text text-anchor="middle" x="663.814" y="-90.8976" font-family="Times,serif" font-size="14.00">0</text>
</g>
<!-- 1 -->
<g id="node2" class="node"><title>1</title>
<ellipse fill="none" stroke="black" cx="809.511" cy="-295.133" rx="27" ry="18"/>
<text text-anchor="middle" x="809.511" y="-291.433" font-family="Times,serif" font-size="14.00">1</text>
</g>
<!-- 0&#45;&#45;1 -->
<g id="edge1" class="edge"><title>0&#45;&#45;1</title>
<path fill="none" stroke="black" d="M675.737,-111.008C703.126,-148.706 770.277,-241.132 797.628,-278.777"/>
</g>
<!-- 2 -->
<g id="node3" class="node"><title>2</title>
<ellipse fill="none" stroke="black" cx="829.141" cy="-419.07" rx="27" ry="18"/>
<text text-anchor="middle" x="829.141" y="-415.37" font-family="Times,serif" font-size="14.00">2</text>
</g>
<!-- 0&#45;&#45;2 -->
<g id="edge2" class="edge"><title>0&#45;&#45;2</title>
<path fill="none" stroke="black" d="M672.702,-112.043C701.476,-168.513 791.861,-345.904 820.409,-401.933"/>
</g>
<!-- 1&#45;&#45;2 -->
<g id="edge3" class="edge"><title>1&#45;&#45;2</title>
<path fill="none" stroke="black" d="M812.365,-313.154C816.087,-336.652 822.56,-377.519 826.283,-401.027"/>
</g>
<!-- 3 -->
<g id="node4" class="node"><title>3</title>
<ellipse fill="none" stroke="black" cx="809.511" cy="-543.008" rx="27" ry="18"/>
<text text-anchor="middle" x="809.511" y="-539.308" font-family="Times,serif" font-size="14.00">3</text>
</g>
<!-- 1&#45;&#45;3 -->
<g id="edge4" class="edge"><title>1&#45;&#45;3</title>
<path fill="none" stroke="black" d="M809.511,-313.36C809.511,-359.199 809.511,-478.886 809.511,-524.754"/>
</g>
<!-- 2&#45;&#45;3 -->
<g id="edge5" class="edge"><title>2&#45;&#45;3</title>
<path fill="none" stroke="black" d="M826.287,-437.092C822.565,-460.59 816.092,-501.456 812.369,-524.965"/>
</g>
<!-- 4 -->
<g id="node5" class="node"><title>4</title>
<ellipse fill="none" stroke="black" cx="752.543" cy="-654.814" rx="27" ry="18"/>
<text text-anchor="middle" x="752.543" y="-651.114" font-family="Times,serif" font-size="14.00">4</text>
</g>
<!-- 2&#45;&#45;4 -->
<g id="edge6" class="edge"><title>2&#45;&#45;4</title>
<path fill="none" stroke="black" d="M823.384,-436.79C809.154,-480.585 772.453,-593.537 758.263,-637.211"/>
</g>
<!-- 3&#45;&#45;4 -->
<g id="edge7" class="edge"><title>3&#45;&#45;4</title>
<path fill="none" stroke="black" d="M800.61,-560.478C789.908,-581.482 772.056,-616.517 761.382,-637.467"/>
</g>
<!-- 5 -->
<g id="node6" class="node"><title>5</title>
<ellipse fill="none" stroke="black" cx="663.814" cy="-743.543" rx="27" ry="18"/>
<text text-anchor="middle" x="663.814" y="-739.843" font-family="Times,serif" font-size="14.00">5</text>
</g>
<!-- 3&#45;&#45;5 -->
<g id="edge8" class="edge"><title>3&#45;&#45;5</title>
<path fill="none" stroke="black" d="M797.588,-559.419C770.199,-597.116 703.048,-689.542 675.697,-727.187"/>
</g>
<!-- 4&#45;&#45;5 -->
<g id="edge9" class="edge"><title>4&#45;&#45;5</title>
<path fill="none" stroke="black" d="M737.492,-669.866C721.175,-686.182 695.284,-712.073 678.939,-728.418"/>
</g>
<!-- 6 -->
<g id="node7" class="node"><title>6</title>
<ellipse fill="none" stroke="black" cx="552.008" cy="-800.511" rx="27" ry="18"/>
<text text-anchor="middle" x="552.008" y="-796.811" font-family="Times,serif" font-size="14.00">6</text>
</g>
<!-- 4&#45;&#45;6 -->
<g id="edge10" class="edge"><title>4&#45;&#45;6</title>
<path fill="none" stroke="black" d="M734.037,-668.259C695.834,-696.015 608.634,-759.37 570.47,-787.098"/>
</g>
<!-- 5&#45;&#45;6 -->
<g id="edge11" class="edge"><title>5&#45;&#45;6</title>
<path fill="none" stroke="black" d="M642.256,-754.527C622.458,-764.615 593.276,-779.484 573.499,-789.561"/>
</g>
<!-- 7 -->
<g id="node8" class="node"><title>7</title>
<ellipse fill="none" stroke="black" cx="428.07" cy="-820.141" rx="27" ry="18"/>
<text text-anchor="middle" x="428.07" y="-816.441" font-family="Times,serif" font-size="14.00">7</text>
</g>
<!-- 5&#45;&#45;7 -->
<g id="edge12" class="edge"><title>5&#45;&#45;7</title>
<path fill="none" stroke="black" d="M639.473,-751.452C594.299,-766.13 497.972,-797.429 452.632,-812.16"/>
</g>
<!-- 6&#45;&#45;7 -->
<g id="edge13" class="edge"><title>6&#45;&#45;7</title>
<path fill="none" stroke="black" d="M525.724,-804.674C504.834,-807.983 475.735,-812.592 454.744,-815.916"/>
</g>
<!-- 8 -->
<g id="node9" class="node"><title>8</title>
<ellipse fill="none" stroke="black" cx="304.133" cy="-800.511" rx="27" ry="18"/>
<text text-anchor="middle" x="304.133" y="-796.811" font-family="Times,serif" font-size="14.00">8</text>
</g>
<!-- 6&#45;&#45;8 -->
<g id="edge14" class="edge"><title>6&#45;&#45;8</title>
<path fill="none" stroke="black" d="M524.534,-800.511C476.761,-800.511 378.946,-800.511 331.352,-800.511"/>
</g>
<!-- 7&#45;&#45;8 -->
<g id="edge15" class="edge"><title>7&#45;&#45;8</title>
<path fill="none" stroke="black" d="M401.786,-815.978C380.896,-812.669 351.798,-808.061 330.806,-804.736"/>
</g>
<!-- 9 -->
<g id="node10" class="node"><title>9</title>
<ellipse fill="none" stroke="black" cx="192.327" cy="-743.543" rx="27" ry="18"/>
<text text-anchor="middle" x="192.327" y="-739.843" font-family="Times,serif" font-size="14.00">9</text>
</g>
<!-- 7&#45;&#45;9 -->
<g id="edge16" class="edge"><title>7&#45;&#45;9</title>
<path fill="none" stroke="black" d="M403.73,-812.232C358.556,-797.554 262.229,-766.256 216.889,-751.524"/>
</g>
<!-- 8&#45;&#45;9 -->
<g id="edge17" class="edge"><title>8&#45;&#45;9</title>
<path fill="none" stroke="black" d="M282.576,-789.527C262.777,-779.439 233.596,-764.571 213.818,-754.494"/>
</g>
<!-- 10 -->
<g id="node11" class="node"><title>10</title>
<ellipse fill="none" stroke="black" cx="103.598" cy="-654.814" rx="27" ry="18"/>
<text text-anchor="middle" x="103.598" y="-651.114" font-family="Times,serif" font-size="14.00">10</text>
</g>
<!-- 8&#45;&#45;10 -->
<g id="edge18" class="edge"><title>8&#45;&#45;10</title>
<path fill="none" stroke="black" d="M285.626,-787.065C247.424,-759.309 160.224,-695.955 122.059,-668.227"/>
</g>
<!-- 9&#45;&#45;10 -->
<g id="edge19" class="edge"><title>9&#45;&#45;10</title>
<path fill="none" stroke="black" d="M177.275,-728.492C160.959,-712.175 135.068,-686.284 118.723,-669.939"/>
</g>
<!-- 11 -->
<g id="node12" class="node"><title>11</title>
<ellipse fill="none" stroke="black" cx="46.6298" cy="-543.008" rx="27" ry="18"/>
<text text-anchor="middle" x="46.6298" y="-539.308" font-family="Times,serif" font-size="14.00">11</text>
</g>
<!-- 9&#45;&#45;11 -->
<g id="edge20" class="edge"><title>9&#45;&#45;11</title>
<path fill="none" stroke="black" d="M180.404,-727.133C153.015,-689.435 85.8637,-597.009 58.5132,-559.364"/>
</g>
<!-- 10&#45;&#45;11 -->
<g id="edge21" class="edge"><title>10&#45;&#45;11</title>
<path fill="none" stroke="black" d="M94.6964,-637.344C83.9941,-616.34 66.1429,-581.305 55.4685,-560.355"/>
</g>
<!-- 12 -->
<g id="node13" class="node"><title>12</title>
<ellipse fill="none" stroke="black" cx="27" cy="-419.07" rx="27" ry="18"/>
<text text-anchor="middle" x="27" y="-415.37" font-family="Times,serif" font-size="14.00">12</text>
</g>
<!-- 10&#45;&#45;12 -->
<g id="edge22" class="edge"><title>10&#45;&#45;12</title>
<path fill="none" stroke="black" d="M97.8404,-637.095C83.6103,-593.299 46.9099,-480.347 32.7196,-436.674"/>
</g>
<!-- 11&#45;&#45;12 -->
<g id="edge23" class="edge"><title>11&#45;&#45;12</title>
<path fill="none" stroke="black" d="M43.7754,-524.986C40.0538,-501.489 33.5812,-460.622 29.8578,-437.114"/>
</g>
<!-- 13 -->
<g id="node14" class="node"><title>13</title>
<ellipse fill="none" stroke="black" cx="46.6298" cy="-295.133" rx="27" ry="18"/>
<text text-anchor="middle" x="46.6298" y="-291.433" font-family="Times,serif" font-size="14.00">13</text>
</g>
<!-- 11&#45;&#45;13 -->
<g id="edge24" class="edge"><title>11&#45;&#45;13</title>
<path fill="none" stroke="black" d="M46.6298,-524.781C46.6298,-478.941 46.6298,-359.255 46.6298,-313.386"/>
</g>
<!-- 12&#45;&#45;13 -->
<g id="edge25" class="edge"><title>12&#45;&#45;13</title>
<path fill="none" stroke="black" d="M29.8543,-401.049C33.576,-377.551 40.0486,-336.685 43.772,-313.176"/>
</g>
<!-- 14 -->
<g id="node15" class="node"><title>14</title>
<ellipse fill="none" stroke="black" cx="103.598" cy="-183.327" rx="27" ry="18"/>
<text text-anchor="middle" x="103.598" y="-179.627" font-family="Times,serif" font-size="14.00">14</text>
</g>
<!-- 12&#45;&#45;14 -->
<g id="edge26" class="edge"><title>12&#45;&#45;14</title>
<path fill="none" stroke="black" d="M32.7573,-401.351C46.9873,-357.556 83.6878,-244.603 97.878,-200.93"/>
</g>
<!-- 13&#45;&#45;14 -->
<g id="edge27" class="edge"><title>13&#45;&#45;14</title>
<path fill="none" stroke="black" d="M55.531,-277.663C66.2333,-256.659 84.0845,-221.624 94.7589,-200.674"/>
</g>
<!-- 15 -->
<g id="node16" class="node"><title>15</title>
<ellipse fill="none" stroke="black" cx="192.327" cy="-94.5976" rx="27" ry="18"/>
<text text-anchor="middle" x="192.327" y="-90.8976" font-family="Times,serif" font-size="14.00">15</text>
</g>
<!-- 13&#45;&#45;15 -->
<g id="edge28" class="edge"><title>13&#45;&#45;15</title>
<path fill="none" stroke="black" d="M58.5528,-278.722C85.9417,-241.025 153.093,-148.599 180.444,-110.954"/>
</g>
<!-- 14&#45;&#45;15 -->
<g id="edge29" class="edge"><title>14&#45;&#45;15</title>
<path fill="none" stroke="black" d="M118.649,-168.275C134.966,-151.959 160.856,-126.068 177.202,-109.723"/>
</g>
<!-- 16 -->
<g id="node17" class="node"><title>16</title>
<ellipse fill="none" stroke="black" cx="304.133" cy="-37.6298" rx="27" ry="18"/>
<text text-anchor="middle" x="304.133" y="-33.9298" font-family="Times,serif" font-size="14.00">16</text>
</g>
<!-- 14&#45;&#45;16 -->
<g id="edge30" class="edge"><title>14&#45;&#45;16</title>
<path fill="none" stroke="black" d="M122.104,-169.881C160.307,-142.126 247.507,-78.7711 285.671,-51.043"/>
</g>
<!-- 15&#45;&#45;16 -->
<g id="edge31" class="edge"><title>15&#45;&#45;16</title>
<path fill="none" stroke="black" d="M213.884,-83.6137C233.683,-73.526 262.864,-58.6571 282.642,-48.58"/>
</g>
<!-- 17 -->
<g id="node18" class="node"><title>17</title>
<ellipse fill="none" stroke="black" cx="428.07" cy="-18" rx="27" ry="18"/>
<text text-anchor="middle" x="428.07" y="-14.3" font-family="Times,serif" font-size="14.00">17</text>
</g>
<!-- 15&#45;&#45;17 -->
<g id="edge32" class="edge"><title>15&#45;&#45;17</title>
<path fill="none" stroke="black" d="M216.668,-86.6889C261.842,-72.0109 358.169,-40.7124 403.509,-25.9805"/>
</g>
<!-- 16&#45;&#45;17 -->
<g id="edge33" class="edge"><title>16&#45;&#45;17</title>
<path fill="none" stroke="black" d="M330.417,-33.4668C351.307,-30.1581 380.405,-25.5494 401.397,-22.2246"/>
</g>
<!-- 18 -->
<g id="node19" class="node"><title>18</title>
<ellipse fill="none" stroke="black" cx="552.008" cy="-37.6298" rx="27" ry="18"/>
<text text-anchor="middle" x="552.008" y="-33.9298" font-family="Times,serif" font-size="14.00">18</text>
</g>
<!-- 16&#45;&#45;18 -->
<g id="edge34" class="edge"><title>16&#45;&#45;18</title>
<path fill="none" stroke="black" d="M331.607,-37.6298C379.38,-37.6298 477.194,-37.6298 524.789,-37.6298"/>
</g>
<!-- 17&#45;&#45;18 -->
<g id="edge35" class="edge"><title>17&#45;&#45;18</title>
<path fill="none" stroke="black" d="M454.354,-22.163C475.245,-25.4717 504.343,-30.0804 525.335,-33.4051"/>
</g>
<!-- 19 -->
<g id="node20" class="node"><title>19</title>
<ellipse fill="none" stroke="black" cx="752.543" cy="-183.327" rx="27" ry="18"/>
<text text-anchor="middle" x="752.543" y="-179.627" font-family="Times,serif" font-size="14.00">19</text>
</g>
<!-- 17&#45;&#45;19 -->
<g id="edge36" class="edge"><title>17&#45;&#45;19</title>
<path fill="none" stroke="black" d="M449.611,-28.9756C508.493,-58.9773 671.674,-142.122 730.797,-172.247"/>
</g>
<!-- 18&#45;&#45;0 -->
<g id="edge38" class="edge"><title>18&#45;&#45;0</title>
<path fill="none" stroke="black" d="M573.565,-48.6138C593.364,-58.7015 622.545,-73.5703 642.323,-83.6474"/>
</g>
<!-- 18&#45;&#45;19 -->
<g id="edge37" class="edge"><title>18&#45;&#45;19</title>
<path fill="none" stroke="black" d="M570.514,-51.0755C608.717,-78.8314 695.917,-142.186 734.082,-169.914"/>
</g>
<!-- 19&#45;&#45;0 -->
<g id="edge39" class="edge"><title>19&#45;&#45;0</title>
<path fill="none" stroke="black" d="M737.492,-168.275C721.175,-151.959 695.284,-126.068 678.939,-109.723"/>
</g>
<!-- 19&#45;&#45;1 -->
<g id="edge40" class="edge"><title>19&#45;&#45;1</title>
<path fill="none" stroke="black" d="M761.444,-200.797C772.147,-221.801 789.998,-256.836 800.672,-277.786"/>
</g>
</g>
</svg>
