<?xml version="1.0" encoding="UTF-8" standalone="no"?>
<!DOCTYPE svg PUBLIC "-//W3C//DTD SVG 1.1//EN"
 "http://www.w3.org/Graphics/SVG/1.1/DTD/svg11.dtd">
<!-- Generated by graphviz version 2.38.0 (20140413.2041)
 -->
<!-- Title: %3 Pages: 1 -->
<svg width="900pt" height="884pt"
 viewBox="0.00 0.00 899.54 883.89" xmlns="http://www.w3.org/2000/svg" xmlns:xlink="http://www.w3.org/1999/xlink">
<g id="graph0" class="graph" transform="scale(1 1) rotate(0) translate(4 879.893)">
<title>%3</title>
<polygon fill="white" stroke="none" points="-4,4 -4,-879.893 895.544,-879.893 895.544,4 -4,4"/>
<!-- 0 -->
<g id="node1" class="node"><title>0</title>
<ellipse fill="none" stroke="black" cx="791.369" cy="-200.719" rx="27" ry="18"/>
<text text-anchor="middle" x="791.369" y="-197.019" font-family="Times,serif" font-size="14.00">0</text>
</g>
<!-- 1 -->
<g id="node2" class="node"><title>1</title>
<ellipse fill="none" stroke="black" cx="474.891" cy="-18" rx="27" ry="18"/>
<text text-anchor="middle" x="474.891" y="-14.3" font-family="Times,serif" font-size="14.00">1</text>
</g>
<!-- 0&#45;&#45;1 -->
<g id="edge1" class="edge"><title>0&#45;&#45;1</title>
<path fill="none" stroke="black" d="M770.604,-188.73C713.123,-155.543 552.399,-62.7494 495.321,-29.7953"/>
</g>
<!-- 2 -->
<g id="node3" class="node"><title>2</title>
<ellipse fill="none" stroke="black" cx="349.711" cy="-27.3809" rx="27" ry="18"/>
<text text-anchor="middle" x="349.711" y="-23.6809" font-family="Times,serif" font-size="14.00">2</text>
</g>
<!-- 0&#45;&#45;2 -->
<g id="edge2" class="edge"><title>0&#45;&#45;2</title>
<path fill="none" stroke="black" d="M767.936,-191.522C691.43,-161.496 449.512,-66.5499 373.089,-36.5558"/>
</g>
<!-- 1&#45;&#45;2 -->
<g id="edge3" class="edge"><title>1&#45;&#45;2</title>
<path fill="none" stroke="black" d="M448.037,-20.0124C427.06,-21.5845 398.029,-23.76 376.953,-25.3394"/>
</g>
<!-- 3 -->
<g id="node4" class="node"><title>3</title>
<ellipse fill="none" stroke="black" cx="232.858" cy="-73.2424" rx="27" ry="18"/>
<text text-anchor="middle" x="232.858" y="-69.5424" font-family="Times,serif" font-size="14.00">3</text>
</g>
<!-- 1&#45;&#45;3 -->
<g id="edge4" class="edge"><title>1&#45;&#45;3</title>
<path fill="none" stroke="black" d="M448.989,-23.9119C402.405,-34.5445 305.023,-56.7714 258.574,-67.373"/>
</g>
<!-- 2&#45;&#45;3 -->
<g id="edge5" class="edge"><title>2&#45;&#45;3</title>
<path fill="none" stroke="black" d="M326.345,-36.5514C305.965,-44.5502 276.553,-56.0937 256.184,-64.0877"/>
</g>
<!-- 4 -->
<g id="node5" class="node"><title>4</title>
<ellipse fill="none" stroke="black" cx="134.715" cy="-151.509" rx="27" ry="18"/>
<text text-anchor="middle" x="134.715" y="-147.809" font-family="Times,serif" font-size="14.00">4</text>
</g>
<!-- 2&#45;&#45;4 -->
<g id="edge6" class="edge"><title>2&#45;&#45;4</title>
<path fill="none" stroke="black" d="M329.097,-39.2829C288.002,-63.0089 196.31,-115.947 155.267,-139.643"/>
</g>
<!-- 3&#45;&#45;4 -->
<g id="edge7" class="edge"><title>3&#45;&#45;4</title>
<path fill="none" stroke="black" d="M215.312,-87.2349C197.448,-101.481 169.918,-123.436 152.109,-137.638"/>
</g>
<!-- 5 -->
<g id="node6" class="node"><title>5</title>
<ellipse fill="none" stroke="black" cx="64.0008" cy="-255.228" rx="27" ry="18"/>
<text text-anchor="middle" x="64.0008" y="-251.528" font-family="Times,serif" font-size="14.00">5</text>
</g>
<!-- 3&#45;&#45;5 -->
<g id="edge8" class="edge"><title>3&#45;&#45;5</title>
<path fill="none" stroke="black" d="M214.585,-86.9381C179.12,-119.812 102.521,-202.483 74.4236,-238.346"/>
</g>
<!-- 4&#45;&#45;5 -->
<g id="edge9" class="edge"><title>4&#45;&#45;5</title>
<path fill="none" stroke="black" d="M123.353,-168.174C110.157,-187.528 88.5179,-219.268 75.334,-238.605"/>
</g>
<!-- 6 -->
<g id="node7" class="node"><title>6</title>
<ellipse fill="none" stroke="black" cx="27" cy="-375.181" rx="27" ry="18"/>
<text text-anchor="middle" x="27" y="-371.481" font-family="Times,serif" font-size="14.00">6</text>
</g>
<!-- 4&#45;&#45;6 -->
<g id="edge10" class="edge"><title>4&#45;&#45;6</title>
<path fill="none" stroke="black" d="M126.441,-168.689C106.391,-210.324 55.3806,-316.248 35.3015,-357.943"/>
</g>
<!-- 5&#45;&#45;3 -->
<g id="edge11" class="edge"><title>5&#45;&#45;3</title>
<path fill="none" stroke="black" d="M82.2746,-241.532C117.739,-208.658 194.338,-125.987 222.436,-90.1236"/>
</g>
<!-- 7 -->
<g id="node8" class="node"><title>7</title>
<ellipse fill="none" stroke="black" cx="27" cy="-500.712" rx="27" ry="18"/>
<text text-anchor="middle" x="27" y="-497.012" font-family="Times,serif" font-size="14.00">7</text>
</g>
<!-- 5&#45;&#45;7 -->
<g id="edge12" class="edge"><title>5&#45;&#45;7</title>
<path fill="none" stroke="black" d="M61.28,-273.279C54.4374,-318.676 36.5716,-437.208 29.7247,-482.634"/>
</g>
<!-- 6&#45;&#45;7 -->
<g id="edge13" class="edge"><title>6&#45;&#45;7</title>
<path fill="none" stroke="black" d="M27,-393.434C27,-417.234 27,-458.626 27,-482.436"/>
</g>
<!-- 8 -->
<g id="node9" class="node"><title>8</title>
<ellipse fill="none" stroke="black" cx="64.0008" cy="-620.665" rx="27" ry="18"/>
<text text-anchor="middle" x="64.0008" y="-616.965" font-family="Times,serif" font-size="14.00">8</text>
</g>
<!-- 6&#45;&#45;8 -->
<g id="edge14" class="edge"><title>6&#45;&#45;8</title>
<path fill="none" stroke="black" d="M29.7208,-393.232C36.5633,-438.63 54.4292,-557.162 61.276,-602.588"/>
</g>
<!-- 7&#45;&#45;8 -->
<g id="edge15" class="edge"><title>7&#45;&#45;8</title>
<path fill="none" stroke="black" d="M32.4596,-518.411C39.4552,-541.09 51.5124,-580.179 58.5188,-602.893"/>
</g>
<!-- 9 -->
<g id="node10" class="node"><title>9</title>
<ellipse fill="none" stroke="black" cx="134.715" cy="-724.383" rx="27" ry="18"/>
<text text-anchor="middle" x="134.715" y="-720.683" font-family="Times,serif" font-size="14.00">9</text>
</g>
<!-- 7&#45;&#45;9 -->
<g id="edge16" class="edge"><title>7&#45;&#45;9</title>
<path fill="none" stroke="black" d="M35.2733,-517.891C55.3234,-559.526 106.334,-665.451 126.413,-707.145"/>
</g>
<!-- 8&#45;&#45;9 -->
<g id="edge17" class="edge"><title>8&#45;&#45;9</title>
<path fill="none" stroke="black" d="M75.3622,-637.329C88.5582,-656.684 110.198,-688.423 123.381,-707.761"/>
</g>
<!-- 10 -->
<g id="node11" class="node"><title>10</title>
<ellipse fill="none" stroke="black" cx="232.858" cy="-802.65" rx="27" ry="18"/>
<text text-anchor="middle" x="232.858" y="-798.95" font-family="Times,serif" font-size="14.00">10</text>
</g>
<!-- 8&#45;&#45;10 -->
<g id="edge18" class="edge"><title>8&#45;&#45;10</title>
<path fill="none" stroke="black" d="M78.3975,-636.181C110.299,-670.563 186.63,-752.828 218.498,-787.174"/>
</g>
<!-- 9&#45;&#45;10 -->
<g id="edge19" class="edge"><title>9&#45;&#45;10</title>
<path fill="none" stroke="black" d="M152.261,-738.376C170.125,-752.622 197.655,-774.577 215.464,-788.779"/>
</g>
<!-- 11 -->
<g id="node12" class="node"><title>11</title>
<ellipse fill="none" stroke="black" cx="349.711" cy="-848.512" rx="27" ry="18"/>
<text text-anchor="middle" x="349.711" y="-844.812" font-family="Times,serif" font-size="14.00">11</text>
</g>
<!-- 9&#45;&#45;11 -->
<g id="edge20" class="edge"><title>9&#45;&#45;11</title>
<path fill="none" stroke="black" d="M155.329,-736.285C196.424,-760.011 288.116,-812.95 329.159,-836.646"/>
</g>
<!-- 10&#45;&#45;11 -->
<g id="edge21" class="edge"><title>10&#45;&#45;11</title>
<path fill="none" stroke="black" d="M256.225,-811.821C276.605,-819.82 306.017,-831.363 326.386,-839.357"/>
</g>
<!-- 12 -->
<g id="node13" class="node"><title>12</title>
<ellipse fill="none" stroke="black" cx="864.544" cy="-437.946" rx="27" ry="18"/>
<text text-anchor="middle" x="864.544" y="-434.246" font-family="Times,serif" font-size="14.00">12</text>
</g>
<!-- 10&#45;&#45;12 -->
<g id="edge22" class="edge"><title>10&#45;&#45;12</title>
<path fill="none" stroke="black" d="M253.517,-790.723C349.2,-735.48 748.694,-504.832 844.044,-449.782"/>
</g>
<!-- 11&#45;&#45;12 -->
<g id="edge23" class="edge"><title>11&#45;&#45;12</title>
<path fill="none" stroke="black" d="M367.136,-834.616C445.914,-771.793 768.355,-514.655 847.124,-451.838"/>
</g>
<!-- 13 -->
<g id="node14" class="node"><title>13</title>
<ellipse fill="none" stroke="black" cx="845.835" cy="-562.075" rx="27" ry="18"/>
<text text-anchor="middle" x="845.835" y="-558.375" font-family="Times,serif" font-size="14.00">13</text>
</g>
<!-- 11&#45;&#45;13 -->
<g id="edge24" class="edge"><title>11&#45;&#45;13</title>
<path fill="none" stroke="black" d="M370.398,-836.569C451.18,-789.929 744.881,-620.361 825.335,-573.91"/>
</g>
<!-- 12&#45;&#45;13 -->
<g id="edge25" class="edge"><title>12&#45;&#45;13</title>
<path fill="none" stroke="black" d="M861.824,-455.996C858.277,-479.53 852.108,-520.459 848.559,-544.004"/>
</g>
<!-- 14 -->
<g id="node15" class="node"><title>14</title>
<ellipse fill="none" stroke="black" cx="791.369" cy="-675.174" rx="27" ry="18"/>
<text text-anchor="middle" x="791.369" y="-671.474" font-family="Times,serif" font-size="14.00">14</text>
</g>
<!-- 12&#45;&#45;14 -->
<g id="edge26" class="edge"><title>12&#45;&#45;14</title>
<path fill="none" stroke="black" d="M859.044,-455.777C845.45,-499.848 810.39,-613.512 796.833,-657.46"/>
</g>
<!-- 13&#45;&#45;14 -->
<g id="edge27" class="edge"><title>13&#45;&#45;14</title>
<path fill="none" stroke="black" d="M837.563,-579.252C827.326,-600.51 809.992,-636.503 799.719,-657.835"/>
</g>
<!-- 15 -->
<g id="node16" class="node"><title>15</title>
<ellipse fill="none" stroke="black" cx="705.987" cy="-767.194" rx="27" ry="18"/>
<text text-anchor="middle" x="705.987" y="-763.494" font-family="Times,serif" font-size="14.00">15</text>
</g>
<!-- 13&#45;&#45;15 -->
<g id="edge28" class="edge"><title>13&#45;&#45;15</title>
<path fill="none" stroke="black" d="M834.627,-578.514C808.442,-616.921 743.486,-712.193 717.248,-750.677"/>
</g>
<!-- 14&#45;&#45;15 -->
<g id="edge29" class="edge"><title>14&#45;&#45;15</title>
<path fill="none" stroke="black" d="M776.885,-690.784C761.089,-707.808 735.968,-734.882 720.257,-751.815"/>
</g>
<!-- 16 -->
<g id="node17" class="node"><title>16</title>
<ellipse fill="none" stroke="black" cx="597.274" cy="-829.96" rx="27" ry="18"/>
<text text-anchor="middle" x="597.274" y="-826.26" font-family="Times,serif" font-size="14.00">16</text>
</g>
<!-- 14&#45;&#45;16 -->
<g id="edge30" class="edge"><title>14&#45;&#45;16</title>
<path fill="none" stroke="black" d="M773.802,-689.183C736.849,-718.653 651.458,-786.75 614.662,-816.094"/>
</g>
<!-- 15&#45;&#45;16 -->
<g id="edge31" class="edge"><title>15&#45;&#45;16</title>
<path fill="none" stroke="black" d="M685.539,-779C666.226,-790.15 637.404,-806.791 618,-817.994"/>
</g>
<!-- 17 -->
<g id="node18" class="node"><title>17</title>
<ellipse fill="none" stroke="black" cx="474.891" cy="-857.893" rx="27" ry="18"/>
<text text-anchor="middle" x="474.891" y="-854.193" font-family="Times,serif" font-size="14.00">17</text>
</g>
<!-- 15&#45;&#45;17 -->
<g id="edge32" class="edge"><title>15&#45;&#45;17</title>
<path fill="none" stroke="black" d="M682.556,-776.39C638.263,-793.774 542.724,-831.27 498.383,-848.673"/>
</g>
<!-- 16&#45;&#45;17 -->
<g id="edge33" class="edge"><title>16&#45;&#45;17</title>
<path fill="none" stroke="black" d="M571.619,-835.815C550.732,-840.583 521.391,-847.28 500.513,-852.045"/>
</g>
<!-- 18 -->
<g id="node19" class="node"><title>18</title>
<ellipse fill="none" stroke="black" cx="845.835" cy="-313.818" rx="27" ry="18"/>
<text text-anchor="middle" x="845.835" y="-310.118" font-family="Times,serif" font-size="14.00">18</text>
</g>
<!-- 16&#45;&#45;18 -->
<g id="edge34" class="edge"><title>16&#45;&#45;18</title>
<path fill="none" stroke="black" d="M605.544,-812.787C643.366,-734.248 799.647,-409.729 837.534,-331.055"/>
</g>
<!-- 17&#45;&#45;11 -->
<g id="edge35" class="edge"><title>17&#45;&#45;11</title>
<path fill="none" stroke="black" d="M448.037,-855.88C427.06,-854.308 398.029,-852.133 376.953,-850.553"/>
</g>
<!-- 19 -->
<g id="node20" class="node"><title>19</title>
<ellipse fill="none" stroke="black" cx="597.274" cy="-45.9332" rx="27" ry="18"/>
<text text-anchor="middle" x="597.274" y="-42.2332" font-family="Times,serif" font-size="14.00">19</text>
</g>
<!-- 17&#45;&#45;19 -->
<g id="edge36" class="edge"><title>17&#45;&#45;19</title>
<path fill="none" stroke="black" d="M477.619,-839.796C493.913,-731.692 578.228,-172.3 594.54,-64.0742"/>
</g>
<!-- 18&#45;&#45;0 -->
<g id="edge38" class="edge"><title>18&#45;&#45;0</title>
<path fill="none" stroke="black" d="M837.563,-296.641C827.326,-275.383 809.992,-239.39 799.719,-218.058"/>
</g>
<!-- 18&#45;&#45;19 -->
<g id="edge37" class="edge"><title>18&#45;&#45;19</title>
<path fill="none" stroke="black" d="M831.397,-298.257C787.466,-250.911 655.736,-108.94 611.752,-61.5366"/>
</g>
<!-- 19&#45;&#45;0 -->
<g id="edge39" class="edge"><title>19&#45;&#45;0</title>
<path fill="none" stroke="black" d="M614.841,-59.9424C651.795,-89.4118 737.186,-157.509 773.982,-186.853"/>
</g>
<!-- 19&#45;&#45;1 -->
<g id="edge40" class="edge"><title>19&#45;&#45;1</title>
<path fill="none" stroke="black" d="M571.619,-40.0775C550.732,-35.3101 521.391,-28.6133 500.513,-23.848"/>
</g>
</g>
</svg>
